<svg xmlns="http://www.w3.org/2000/svg" viewBox="0 0 166.68 61.23"><defs><style>.cls-1{fill:#ffffff;}</style></defs><title>Le carga logo</title><g id="Capa_2" data-name="Capa 2"><g id="object"><circle class="cls-1" cx="19.79" cy="8.07" r="8"/><circle class="cls-1" cx="43.37" cy="53.57" r="7.5"/><path class="cls-1" d="M20,56.07H3.73l11.87-45h6l-10.55,40H21.28Z"/><path class="cls-1" d="M40.58,31.68H28a32.21,32.21,0,0,0-1.29,7.42,2.21,2.21,0,0,0,2.5,2.51,3.49,3.49,0,0,0,3-1.45,14.42,14.42,0,0,0,1.93-4.57h5.1q-3,10.62-11.71,10.62-9.32,0-5.39-14.87,4.29-16.23,14-16.23a6.24,6.24,0,0,1,5.54,2.81c1.25,1.86,1.11,5.73-.44,11.58ZM35.9,27.77a19.8,19.8,0,0,0,1-6.23,1.84,1.84,0,0,0-2-1.89,3.73,3.73,0,0,0-3.35,2,24.16,24.16,0,0,0-2.3,6.13Z"/><path class="cls-1" d="M69.3,44.91a14,14,0,0,1-5.62,1.3A9.06,9.06,0,0,1,55.62,42q-2.77-4.18.66-17.53Q60,10,65.17,5T75.82,0a20.69,20.69,0,0,1,4.89.7L79.29,6.2a8.44,8.44,0,0,0-3.53-.81C73.48,5.39,71.21,6.59,69,9s-4.27,7.09-6.09,14.13a72.89,72.89,0,0,0-2,9.82,8.42,8.42,0,0,0,1,5.65,4.79,4.79,0,0,0,4.3,2.1,13.26,13.26,0,0,0,4.5-1.09Z"/><path class="cls-1" d="M92.81,46.07H87.4l1-4H88.2c-2.07,2.73-4.21,4.09-6.4,4.09a4.57,4.57,0,0,1-4.24-2.75q-1.44-2.76,1-12.34,2.18-8.5,4.74-12.26A7.63,7.63,0,0,1,89.79,15a3.76,3.76,0,0,1,2.75.9,7.66,7.66,0,0,1,1.59,2.87h.19l.77-3h5.44Zm-7.65-4.92c1.37,0,2.5-.86,3.4-2.59a45.41,45.41,0,0,0,2.94-8.82A33.79,33.79,0,0,0,92.84,22c0-1.49-.72-2.23-2-2.23a3.8,3.8,0,0,0-3.29,2.07,29.51,29.51,0,0,0-2.68,7.51,48.49,48.49,0,0,0-1.71,9.08C83.06,40.26,83.74,41.15,85.16,41.15Z"/><path class="cls-1" d="M117.65,20A9.85,9.85,0,0,0,112,21.47q-1.91,1.39-3.1,6.22L104.4,46H98.86l7.49-30.2h5.54l-1,4.16H111q3.57-5,7.54-5l.34.07Z"/><path class="cls-1" d="M133.69,49.36c-1,3.11-1.28,4.07-3.07,5.49s-4.8,1.22-7.92,1.22h-4.84L119.5,51h4.66c1.44-.06,2.57,0,3.18-.33a3.5,3.5,0,0,0,.69-1.32c.8-2.46,2-7.49,2-7.49h.06q-2.82,4.5-7,4.5a4.28,4.28,0,0,1-4.15-2.82q-1.25-2.84,1.52-13.47c1.66-6.39,3.34-10.51,5-12.33A7.75,7.75,0,0,1,131.29,15a4.78,4.78,0,0,1,3.2.84,6.9,6.9,0,0,1,1.66,2.68h.1l.79-3h5.47Zm-6.62-8.63a3.68,3.68,0,0,0,3.21-2.17,31,31,0,0,0,2.61-7.31c1.27-4.88,1.9-8.1,1.88-9.64s-.73-2.3-2.12-2.3a4,4,0,0,0-3.31,2.24,27.05,27.05,0,0,0-2.69,7.17A52.25,52.25,0,0,0,124.83,38C124.76,39.82,125.5,40.73,127.07,40.73Z"/><path class="cls-1" d="M159,46h-5.32l1-4h-.16c-2,2.72-4.15,4.07-6.31,4.07A4.49,4.49,0,0,1,144,43.29q-1.41-2.74,1-12.29,2.15-8.49,4.68-12.22T156.11,15a3.65,3.65,0,0,1,2.7.9,7.61,7.61,0,0,1,1.56,2.86h.19l.76-3h5.36Zm-7.52-4.87c1.35,0,2.47-.87,3.36-2.59a46.24,46.24,0,0,0,2.9-8.79,33.74,33.74,0,0,0,1.32-7.67q0-2.22-2-2.22a3.78,3.78,0,0,0-3.24,2.06,29.65,29.65,0,0,0-2.64,7.48,48.76,48.76,0,0,0-1.7,9C149.45,40.23,150.12,41.12,151.51,41.12Z"/><polygon class="cls-1" points="39.21 56.07 19.64 56.07 20.64 51.07 40.21 51.07 39.21 56.07"/><circle class="cls-1" cx="7.5" cy="53.23" r="7.5"/><rect class="cls-1" x="36.09" y="51.07" width="89.03" height="5.01"/><circle class="cls-1" cx="111.16" cy="53.23" r="8"/></g></g></svg>